<svg xmlns="http://www.w3.org/2000/svg" version="1.1" id="layer" x="0" y="0" xml:space="preserve" width="600" height="112"><style type="text/css" id="style3911">.st0{fill:#026937}</style><g id="g3961" transform="translate(-20 -265.655)"><g id="g3959"><g id="g3957"><path class="st0" d="M152.1 315.5c0-2.1 1.2-4 4.2-4h13.2c2.4 0 3.6 1.7 3.6 3.6 0 1.8-1.2 3.6-3.6 3.6h-9.6v7.5h7.8c2.4 0 4.2 1.8 4.2 3.6s-1.8 3.7-4.2 3.7h-7.8v11.3c0 2.6-1.8 4-3.6 4-2.4 0-4.2-1.4-4.2-4" id="path3913" style="fill:#026937"/><path class="st0" d="M181.9 334.6c0 3.6 1.8 7.5 6 7.5s6-4 6-7.5c0-3.6-1.8-7.7-6-7.7-4.2.1-6 4.2-6 7.7m19.2 0c0 7.8-5.4 14.3-13.2 14.3-8.4 0-13.8-6.5-13.8-14.3 0-7.5 6-14.4 13.8-14.4 7.8 0 13.2 6.9 13.2 14.4z" id="path3915" style="fill:#026937"/><path class="st0" d="M204.7 324.2c0-2.4 1.8-3.8 3.6-3.8 2.4 0 3.6.8 3.6 3.1h.6c1.2-2 2.4-3.1 4.8-3.1 1.8 0 3.6 1.3 3.6 4 0 2.4-1.8 2.7-4.2 3.7-2.4 1-4.8 2-4.8 5v11.4c0 2.6-1.2 4.2-3.6 4.2-1.8 0-3.6-1.7-3.6-4.2" id="path3917" style="fill:#026937"/><path class="st0" d="M239.1 332.1c0-3.2-2.4-5.7-5.4-5.7-3.6 0-6 2.6-6 5.7m0 5c.6 3.7 3.6 5.4 7.2 5.4s6.6-3.1 8.4-3.1c1.2 0 3 1.7 3 3.2 0 3.2-6.6 6.3-12 6.3-8.4 0-14.4-6.1-14.4-14.3 0-7.5 5.4-14.4 13.8-14.4 7.8 0 13.2 7.3 13.2 13.5 0 2.2-1.2 3.3-3.6 3.3h-15.6z" id="path3919" style="fill:#026937"/><path class="st0" d="M265.7 328.9c-1.2 0-4.2-2.2-6.6-2.2-1.2 0-2.4.7-2.4 2.1 0 3.4 12.6 3 12.6 11.4 0 5-4.2 8.8-10.8 8.8-4.2 0-10.2-2.3-10.2-5.8 0-1.1 1.2-3.3 3.6-3.3 2.4 0 4.2 2.6 7.2 2.6 2.4 0 3-.7 3-2.1 0-3.4-12.6-2.9-12.6-11.4 0-5.2 4.2-8.8 10.2-8.8 3.6 0 9 1.8 9 5.4 0 1.7-1.2 3.3-3 3.3" id="path3921" style="fill:#026937"/><path class="st0" d="M274.5 327.3h-1.8c-1.8 0-3-1.2-3-3.3 0-1.8 1.2-3.2 3-3.2h1.8v-4.4c0-2.6 1.2-4.2 3.6-4.2 2.4 0 3.6 1.7 3.6 4.2v4.4h2.4c1.8 0 3.6.9 3.6 3.2 0 2.4-1.8 3.3-3.6 3.3h-2.4v17.2c0 2.6-1.2 4.1-3.6 4.1-2.4 0-3.6-1.6-3.6-4.1" id="path3923" style="fill:#026937"/><path class="st0" d="M288.4 324.2c0-2.4 1.8-3.8 3.6-3.8 2.4 0 4.2.8 4.2 3.1 1.2-2 3-3.1 4.8-3.1 1.8 0 3.6 1.3 3.6 4 0 2.4-1.8 2.7-4.2 3.7-2.4 1-4.2 2-4.2 5v11.4c0 2.6-1.8 4.2-4.2 4.2-1.8 0-3.6-1.7-3.6-4.2" id="path3925" style="fill:#026937"/><path class="st0" d="M304.4 325.6c0-.6-.6-1.1-.6-1.9 0-1.9 2.4-3.2 3.6-3.2 1.8 0 3 1 4.2 2.7l4.8 14 5.4-14c.6-1.7 1.8-2.7 3.6-2.7s3.6 1.3 3.6 3.2v1.9l-12.6 31.1c-.6 1.6-1.8 3-3.6 3-2.4 0-4.2-1.6-4.2-3.2 0-.7.6-1.6.6-2.2l3.6-8.1" id="path3927" style="fill:#026937"/><path class="st0" d="M362.8 310.9c3.6 0 11.4 1.2 11.4 5.8 0 1.9-1.8 3.6-3.6 3.6s-3.6-1.9-7.8-1.9c-6.6 0-9.6 5.4-9.6 11.8 0 6.2 3 11.5 9.6 11.5 4.2 0 6-2.2 8.4-2.2 2.4 0 3 2.3 3 3.6 0 5-7.8 6.1-11.4 6.1-10.8 0-18-8.3-18-19.1 0-10.9 7.2-19.2 18-19.2" id="path3929" style="fill:#026937"/><path class="st0" d="M384.8 334.6c0 3.6 1.8 7.5 6 7.5 3.6 0 6-4 6-7.5 0-3.6-2.4-7.7-6-7.7-4.2.1-6 4.2-6 7.7m19.2 0c0 7.8-5.4 14.3-13.2 14.3-8.4 0-13.8-6.5-13.8-14.3 0-7.5 6-14.4 13.8-14.4 7.8 0 13.2 6.9 13.2 14.4z" id="path3931" style="fill:#026937"/><path class="st0" d="M407.7 324.7c0-2.6 1.8-4.1 3.6-4.1s3.6 1 3.6 2.8c1.8-2 4.2-3.1 7.2-3.1s5.4 1.2 7.2 3.8c2.4-2.4 5.4-3.8 7.8-3.8 6.6 0 10.8 3.6 10.8 10v14.3c0 2.6-1.8 4.2-4.2 4.2-1.8 0-3.6-1.7-3.6-4.2v-13c0-3-1.8-5.1-4.2-5.1-3 0-4.8 2.1-4.8 5.1v13c0 2.6-1.2 4.2-3.6 4.2-1.8 0-3.6-1.7-3.6-4.2v-13c0-3-1.8-5.1-4.2-5.1-3 0-4.8 2.1-4.8 5.1v13c0 2.6-1.2 4.2-3.6 4.2-1.8 0-3.6-1.7-3.6-4.2" id="path3933" style="fill:#026937"/><path class="st0" d="M452.3 324.7c0-2.6 1.8-4.1 3.6-4.1s3.6 1 3.6 2.8c1.8-2 4.2-3.1 6.6-3.1 3.6 0 6 1.2 7.8 3.8 2.4-2.4 5.4-3.8 8.4-3.8 6 0 10.2 3.6 10.2 10v14.3c0 2.6-1.8 4.2-4.2 4.2-1.8 0-3.6-1.7-3.6-4.2v-13c0-3-1.8-5.1-4.2-5.1-3 0-4.8 2.1-4.8 5.1v13c0 2.6-1.2 4.2-3.6 4.2-1.8 0-3.6-1.7-3.6-4.2v-13c0-3-1.8-5.1-4.2-5.1-3 0-4.8 2.1-4.8 5.1v13c0 2.6-1.2 4.2-3.6 4.2-1.8 0-3.6-1.7-3.6-4.2" id="path3935" style="fill:#026937"/><path class="st0" d="M497.1 324.6c0-2.4 1.2-4.1 3.6-4.1 2.4 0 3.6 1.7 3.6 4.1v20c0 2.4-1.2 4.1-3.6 4.1-2.4 0-3.6-1.7-3.6-4.1m7.8-31.2c0 2.3-1.8 4.3-4.2 4.3-2.4 0-4.2-2-4.2-4.3 0-2.1 1.8-4.1 4.2-4.1 2.4 0 4.2 1.9 4.2 4.1z" id="path3937" style="fill:#026937"/><path class="st0" d="M524.8 328.9c-1.2 0-4.2-2.2-6.6-2.2-1.2 0-2.4.7-2.4 2.1 0 3.4 12.6 3 12.6 11.4 0 5-4.2 8.8-10.8 8.8-3.6 0-10.2-2.3-10.2-5.8 0-1.1 1.2-3.3 3.6-3.3 2.4 0 4.2 2.6 7.2 2.6 2.4 0 3-.7 3-2.1 0-3.4-12.6-2.9-12.6-11.4 0-5.2 4.2-8.8 10.2-8.8 3.6 0 9 1.8 9 5.4 0 1.7-1.2 3.3-3 3.3" id="path3939" style="fill:#026937"/><path class="st0" d="M547.4 328.9c-1.2 0-4.2-2.2-6.6-2.2-1.2 0-2.4.7-2.4 2.1 0 3.4 12.6 3 12.6 11.4 0 5-4.2 8.8-10.8 8.8-3.6 0-10.2-2.3-10.2-5.8 0-1.1 1.2-3.3 3.6-3.3 2.4 0 4.2 2.6 7.2 2.6 2.4 0 3-.7 3-2.1 0-3.4-12.6-2.9-12.6-11.4 0-5.2 4.2-8.8 10.2-8.8 3.6 0 9 1.8 9 5.4 0 1.7-1.2 3.3-3 3.3" id="path3941" style="fill:#026937"/><path class="st0" d="M554.3 324.6c0-2.4 1.2-4.1 3.6-4.1 2.4 0 3.6 1.7 3.6 4.1v20c0 2.4-1.2 4.1-3.6 4.1-2.4 0-3.6-1.7-3.6-4.1m7.8-31.2c0 2.3-1.8 4.3-4.2 4.3-2.4 0-4.2-2-4.2-4.3 0-2.1 1.8-4.1 4.2-4.1 2.4 0 4.2 1.9 4.2 4.1z" id="path3943" style="fill:#026937"/><path class="st0" d="M572.8 334.6c0 3.6 1.8 7.5 6 7.5s6-4 6-7.5c0-3.6-1.8-7.7-6-7.7-4.2.1-6 4.2-6 7.7m19.2 0c0 7.8-5.4 14.3-13.2 14.3-8.4 0-13.8-6.5-13.8-14.3 0-7.5 6-14.4 13.8-14.4 7.8 0 13.2 6.9 13.2 14.4z" id="path3945" style="fill:#026937"/><path class="st0" d="M595.7 324.7c0-2.6 1.2-4.1 3.6-4.1 1.8 0 3 1 3.6 2.7 1.2-2 3.6-3 7.2-3 6 0 10.2 3.7 10.2 10v14.3c0 2.6-1.8 4.2-3.6 4.2-2.4 0-3.6-1.7-3.6-4.2v-13c0-3.4-2.4-5.1-5.4-5.1-3 0-4.8 2.2-4.8 5.1v13c0 2.6-1.2 4.2-3.6 4.2-2.4 0-3.6-1.7-3.6-4.2" id="path3947" style="fill:#026937"/><path class="st0" id="polyline3949" style="fill:#026937" d="m77.9 353.8 2.4-5.2 12-9.5-1.8-9.5-3-9.7 9.6-18.8h-3.6l15.6-35 15.6 35h-3.6l13.2 29h-4.8l9.6 23.7h-24.6V377h-12v-23.2"/><path class="st0" d="M82.6 313.3c1.8-9.4-1.8-18.4-9.6-23.5-6-3.3-14.4-3.8-20.4-1.2-6.6 2.9-12 9.3-13.2 16-1.8.6-4.2 1.7-6 3.3-3 3.2-4.2 8-3 12.4a22.91 22.91 0 0 0-10.2 19c.6 9 6.6 16.5 14.4 19.8 6 2.4 14.4 1.3 19.8-1.7-.6 6.1-1.8 11.8-6 16.3h25.8c-4.2-5.1-7.8-11-6-17.9 1.2.8 4.2 1.1 6 1.1 12.6 0 22.2-9.9 22.2-22.1 0-9.3-6-17.2-14.4-20.4m-9.6 6.6h1.2c7.2 0 13.2 5.9 13.2 13.1 0 7.3-6 13.2-13.2 13.2-3.6 0-6.6-1.6-9-3.9H54.4c-1.2 3.1-4.2 6.2-7.2 7.4-4.8 2-10.8.3-14.4-3.6-3.6-3.7-4.2-9.3-2.4-13.8 1.2-3.6 4.8-6.4 8.4-7.5l4.2-.3.6-4.4c-1.8.1-4.2-.9-4.8-2.7-1.2-1.2 0-2.9 0-4.1 1.2-1.8 3.6-2.2 5.4-1.8 0 .3.6.8.6.8l3.6-2.8c-.6-5.7 1.2-10.4 6-13.3 3.6-1.7 7.8-2.4 10.8-1.1 3.6 1 6 3.7 7.8 6.8 1.8 4.4 1.8 10.1-1.2 13.9l-1.2 1.2z" id="path3951" style="fill:#026937"/><path class="st0" id="polyline3953" style="fill:#026937" d="m77.9 353.8 2.4-5.2 12-9.5-1.8-9.5-3-9.7 9.6-18.8h-3.6l15.6-35 15.6 35h-3.6l13.2 29h-4.8l9.6 23.7h-24.6V377h-12v-23.2"/><path d="M82.6 313.3c1.8-9.4-1.8-18.4-9.6-23.5-6-3.3-14.4-3.8-20.4-1.2-6.6 2.9-12 9.3-13.2 16-1.8.6-4.2 1.7-6 3.3-3 3.2-4.2 8-3 12.4a22.91 22.91 0 0 0-10.2 19c.6 9 6.6 16.5 14.4 19.8 6 2.4 14.4 1.3 19.8-1.7-.6 6.1-1.8 11.8-6 16.3h25.8c-4.2-5.1-7.8-11-6-17.9 1.2.8 4.2 1.1 6 1.1 12.6 0 22.2-9.9 22.2-22.1 0-9.3-6-17.2-14.4-20.4m-9.6 6.6h1.2c7.2 0 13.2 5.9 13.2 13.1 0 7.3-6 13.2-13.2 13.2-3.6 0-6.6-1.6-9-3.9H54.4c-1.2 3.1-4.2 6.2-7.2 7.4-4.8 2-10.8.3-14.4-3.6-3.6-3.7-4.2-9.3-2.4-13.8 1.2-3.6 4.8-6.4 8.4-7.5l4.2-.3.6-4.4c-1.8.1-4.2-.9-4.8-2.7-1.2-1.2 0-2.9 0-4.1 1.2-1.8 3.6-2.2 5.4-1.8 0 .3.6.8.6.8l3.6-2.8c-.6-5.7 1.2-10.4 6-13.3 3.6-1.7 7.8-2.4 10.8-1.1 3.6 1 6 3.7 7.8 6.8 1.8 4.4 1.8 10.1-1.2 13.9l-1.2 1.2z" id="path3955" style="fill:#63a70a"/></g></g></g></svg>