<?xml version="1.0" encoding="UTF-8" standalone="no"?>
<!-- Generator: Adobe Illustrator 19.2.1, SVG Export Plug-In . SVG Version: 6.00 Build 0)  -->

<svg
   xmlns:dc="http://purl.org/dc/elements/1.1/"
   xmlns:cc="http://creativecommons.org/ns#"
   xmlns:rdf="http://www.w3.org/1999/02/22-rdf-syntax-ns#"
   xmlns:svg="http://www.w3.org/2000/svg"
   xmlns="http://www.w3.org/2000/svg"
   xmlns:sodipodi="http://sodipodi.sourceforge.net/DTD/sodipodi-0.dtd"
   xmlns:inkscape="http://www.inkscape.org/namespaces/inkscape"
   version="1.1"
   id="layer"
   x="0px"
   y="0px"
   viewBox="0 0 600 112"
   xml:space="preserve"
   sodipodi:docname="ForestryCommission.svg"
   width="600"
   height="112"
   inkscape:version="0.92.4 (fd57863, 2020-04-02)"><metadata
   id="metadata3968"><rdf:RDF><cc:Work
       rdf:about=""><dc:format>image/svg+xml</dc:format><dc:type
         rdf:resource="http://purl.org/dc/dcmitype/StillImage" /><dc:title></dc:title></cc:Work></rdf:RDF></metadata><defs
   id="defs3966" /><sodipodi:namedview
   pagecolor="#ffffff"
   bordercolor="#666666"
   borderopacity="1"
   objecttolerance="10"
   gridtolerance="10"
   guidetolerance="10"
   inkscape:pageopacity="0"
   inkscape:pageshadow="2"
   inkscape:window-width="1853"
   inkscape:window-height="1025"
   id="namedview3964"
   showgrid="false"
   inkscape:zoom="1.4478528"
   inkscape:cx="532.51656"
   inkscape:cy="55.322282"
   inkscape:window-x="67"
   inkscape:window-y="27"
   inkscape:window-maximized="1"
   inkscape:current-layer="layer" />
<style
   type="text/css"
   id="style3911">
	.st0{fill:#026937;}
	.st1{fill:#63A70A;}
</style>
<g
   id="g3961"
   transform="translate(-20,-265.65466)">
	<g
   id="g3959">
		<g
   id="g3957">
			<path
   class="st0"
   d="m 152.1,315.5 c 0,-2.1 1.2,-4 4.2,-4 h 13.2 c 2.4,0 3.6,1.7 3.6,3.6 0,1.8 -1.2,3.6 -3.6,3.6 h -9.6 v 7.5 h 7.8 c 2.4,0 4.2,1.8 4.2,3.6 0,1.8 -1.8,3.7 -4.2,3.7 h -7.8 v 11.3 c 0,2.6 -1.8,4 -3.6,4 -2.4,0 -4.2,-1.4 -4.2,-4"
   id="path3913"
   inkscape:connector-curvature="0"
   style="fill:#026937" />
			<path
   class="st0"
   d="m 181.9,334.6 c 0,3.6 1.8,7.5 6,7.5 4.2,0 6,-4 6,-7.5 0,-3.6 -1.8,-7.7 -6,-7.7 -4.2,0.1 -6,4.2 -6,7.7 m 19.2,0 c 0,7.8 -5.4,14.3 -13.2,14.3 -8.4,0 -13.8,-6.5 -13.8,-14.3 0,-7.5 6,-14.4 13.8,-14.4 7.8,0 13.2,6.9 13.2,14.4 z"
   id="path3915"
   inkscape:connector-curvature="0"
   style="fill:#026937" />
			<path
   class="st0"
   d="m 204.7,324.2 c 0,-2.4 1.8,-3.8 3.6,-3.8 2.4,0 3.6,0.8 3.6,3.1 h 0.6 c 1.2,-2 2.4,-3.1 4.8,-3.1 1.8,0 3.6,1.3 3.6,4 0,2.4 -1.8,2.7 -4.2,3.7 -2.4,1 -4.8,2 -4.8,5 v 11.4 c 0,2.6 -1.2,4.2 -3.6,4.2 -1.8,0 -3.6,-1.7 -3.6,-4.2"
   id="path3917"
   inkscape:connector-curvature="0"
   style="fill:#026937" />
			<path
   class="st0"
   d="m 239.1,332.1 c 0,-3.2 -2.4,-5.7 -5.4,-5.7 -3.6,0 -6,2.6 -6,5.7 m 0,5 c 0.6,3.7 3.6,5.4 7.2,5.4 3.6,0 6.6,-3.1 8.4,-3.1 1.2,0 3,1.7 3,3.2 0,3.2 -6.6,6.3 -12,6.3 -8.4,0 -14.4,-6.1 -14.4,-14.3 0,-7.5 5.4,-14.4 13.8,-14.4 7.8,0 13.2,7.3 13.2,13.5 0,2.2 -1.2,3.3 -3.6,3.3 h -15.6 z"
   id="path3919"
   inkscape:connector-curvature="0"
   style="fill:#026937" />
			<path
   class="st0"
   d="m 265.7,328.9 c -1.2,0 -4.2,-2.2 -6.6,-2.2 -1.2,0 -2.4,0.7 -2.4,2.1 0,3.4 12.6,3 12.6,11.4 0,5 -4.2,8.8 -10.8,8.8 -4.2,0 -10.2,-2.3 -10.2,-5.8 0,-1.1 1.2,-3.3 3.6,-3.3 2.4,0 4.2,2.6 7.2,2.6 2.4,0 3,-0.7 3,-2.1 0,-3.4 -12.6,-2.9 -12.6,-11.4 0,-5.2 4.2,-8.8 10.2,-8.8 3.6,0 9,1.8 9,5.4 0,1.7 -1.2,3.3 -3,3.3"
   id="path3921"
   inkscape:connector-curvature="0"
   style="fill:#026937" />
			<path
   class="st0"
   d="m 274.5,327.3 h -1.8 c -1.8,0 -3,-1.2 -3,-3.3 0,-1.8 1.2,-3.2 3,-3.2 h 1.8 v -4.4 c 0,-2.6 1.2,-4.2 3.6,-4.2 2.4,0 3.6,1.7 3.6,4.2 v 4.4 h 2.4 c 1.8,0 3.6,0.9 3.6,3.2 0,2.4 -1.8,3.3 -3.6,3.3 h -2.4 v 17.2 c 0,2.6 -1.2,4.1 -3.6,4.1 -2.4,0 -3.6,-1.6 -3.6,-4.1"
   id="path3923"
   inkscape:connector-curvature="0"
   style="fill:#026937" />
			<path
   class="st0"
   d="m 288.4,324.2 c 0,-2.4 1.8,-3.8 3.6,-3.8 2.4,0 4.2,0.8 4.2,3.1 1.2,-2 3,-3.1 4.8,-3.1 1.8,0 3.6,1.3 3.6,4 0,2.4 -1.8,2.7 -4.2,3.7 -2.4,1 -4.2,2 -4.2,5 v 11.4 c 0,2.6 -1.8,4.2 -4.2,4.2 -1.8,0 -3.6,-1.7 -3.6,-4.2"
   id="path3925"
   inkscape:connector-curvature="0"
   style="fill:#026937" />
			<path
   class="st0"
   d="m 304.4,325.6 c 0,-0.6 -0.6,-1.1 -0.6,-1.9 0,-1.9 2.4,-3.2 3.6,-3.2 1.8,0 3,1 4.2,2.7 l 4.8,14 5.4,-14 c 0.6,-1.7 1.8,-2.7 3.6,-2.7 1.8,0 3.6,1.3 3.6,3.2 0,0.8 0,1.3 0,1.9 l -12.6,31.1 c -0.6,1.6 -1.8,3 -3.6,3 -2.4,0 -4.2,-1.6 -4.2,-3.2 0,-0.7 0.6,-1.6 0.6,-2.2 l 3.6,-8.1"
   id="path3927"
   inkscape:connector-curvature="0"
   style="fill:#026937" />
			<path
   class="st0"
   d="m 362.8,310.9 c 3.6,0 11.4,1.2 11.4,5.8 0,1.9 -1.8,3.6 -3.6,3.6 -1.8,0 -3.6,-1.9 -7.8,-1.9 -6.6,0 -9.6,5.4 -9.6,11.8 0,6.2 3,11.5 9.6,11.5 4.2,0 6,-2.2 8.4,-2.2 2.4,0 3,2.3 3,3.6 0,5 -7.8,6.1 -11.4,6.1 -10.8,0 -18,-8.3 -18,-19.1 0,-10.9 7.2,-19.2 18,-19.2"
   id="path3929"
   inkscape:connector-curvature="0"
   style="fill:#026937" />
			<path
   class="st0"
   d="m 384.8,334.6 c 0,3.6 1.8,7.5 6,7.5 3.6,0 6,-4 6,-7.5 0,-3.6 -2.4,-7.7 -6,-7.7 -4.2,0.1 -6,4.2 -6,7.7 m 19.2,0 c 0,7.8 -5.4,14.3 -13.2,14.3 -8.4,0 -13.8,-6.5 -13.8,-14.3 0,-7.5 6,-14.4 13.8,-14.4 7.8,0 13.2,6.9 13.2,14.4 z"
   id="path3931"
   inkscape:connector-curvature="0"
   style="fill:#026937" />
			<path
   class="st0"
   d="m 407.7,324.7 c 0,-2.6 1.8,-4.1 3.6,-4.1 1.8,0 3.6,1 3.6,2.8 1.8,-2 4.2,-3.1 7.2,-3.1 3,0 5.4,1.2 7.2,3.8 2.4,-2.4 5.4,-3.8 7.8,-3.8 6.6,0 10.8,3.6 10.8,10 v 14.3 c 0,2.6 -1.8,4.2 -4.2,4.2 -1.8,0 -3.6,-1.7 -3.6,-4.2 v -13 c 0,-3 -1.8,-5.1 -4.2,-5.1 -3,0 -4.8,2.1 -4.8,5.1 v 13 c 0,2.6 -1.2,4.2 -3.6,4.2 -1.8,0 -3.6,-1.7 -3.6,-4.2 v -13 c 0,-3 -1.8,-5.1 -4.2,-5.1 -3,0 -4.8,2.1 -4.8,5.1 v 13 c 0,2.6 -1.2,4.2 -3.6,4.2 -1.8,0 -3.6,-1.7 -3.6,-4.2"
   id="path3933"
   inkscape:connector-curvature="0"
   style="fill:#026937" />
			<path
   class="st0"
   d="m 452.3,324.7 c 0,-2.6 1.8,-4.1 3.6,-4.1 1.8,0 3.6,1 3.6,2.8 1.8,-2 4.2,-3.1 6.6,-3.1 3.6,0 6,1.2 7.8,3.8 2.4,-2.4 5.4,-3.8 8.4,-3.8 6,0 10.2,3.6 10.2,10 v 14.3 c 0,2.6 -1.8,4.2 -4.2,4.2 -1.8,0 -3.6,-1.7 -3.6,-4.2 v -13 c 0,-3 -1.8,-5.1 -4.2,-5.1 -3,0 -4.8,2.1 -4.8,5.1 v 13 c 0,2.6 -1.2,4.2 -3.6,4.2 -1.8,0 -3.6,-1.7 -3.6,-4.2 v -13 c 0,-3 -1.8,-5.1 -4.2,-5.1 -3,0 -4.8,2.1 -4.8,5.1 v 13 c 0,2.6 -1.2,4.2 -3.6,4.2 -1.8,0 -3.6,-1.7 -3.6,-4.2"
   id="path3935"
   inkscape:connector-curvature="0"
   style="fill:#026937" />
			<path
   class="st0"
   d="m 497.1,324.6 c 0,-2.4 1.2,-4.1 3.6,-4.1 2.4,0 3.6,1.7 3.6,4.1 v 20 c 0,2.4 -1.2,4.1 -3.6,4.1 -2.4,0 -3.6,-1.7 -3.6,-4.1 m 7.8,-31.2 c 0,2.3 -1.8,4.3 -4.2,4.3 -2.4,0 -4.2,-2 -4.2,-4.3 0,-2.1 1.8,-4.1 4.2,-4.1 2.4,0 4.2,1.9 4.2,4.1 z"
   id="path3937"
   inkscape:connector-curvature="0"
   style="fill:#026937" />
			<path
   class="st0"
   d="m 524.8,328.9 c -1.2,0 -4.2,-2.2 -6.6,-2.2 -1.2,0 -2.4,0.7 -2.4,2.1 0,3.4 12.6,3 12.6,11.4 0,5 -4.2,8.8 -10.8,8.8 -3.6,0 -10.2,-2.3 -10.2,-5.8 0,-1.1 1.2,-3.3 3.6,-3.3 2.4,0 4.2,2.6 7.2,2.6 2.4,0 3,-0.7 3,-2.1 0,-3.4 -12.6,-2.9 -12.6,-11.4 0,-5.2 4.2,-8.8 10.2,-8.8 3.6,0 9,1.8 9,5.4 0,1.7 -1.2,3.3 -3,3.3"
   id="path3939"
   inkscape:connector-curvature="0"
   style="fill:#026937" />
			<path
   class="st0"
   d="m 547.4,328.9 c -1.2,0 -4.2,-2.2 -6.6,-2.2 -1.2,0 -2.4,0.7 -2.4,2.1 0,3.4 12.6,3 12.6,11.4 0,5 -4.2,8.8 -10.8,8.8 -3.6,0 -10.2,-2.3 -10.2,-5.8 0,-1.1 1.2,-3.3 3.6,-3.3 2.4,0 4.2,2.6 7.2,2.6 2.4,0 3,-0.7 3,-2.1 0,-3.4 -12.6,-2.9 -12.6,-11.4 0,-5.2 4.2,-8.8 10.2,-8.8 3.6,0 9,1.8 9,5.4 0,1.7 -1.2,3.3 -3,3.3"
   id="path3941"
   inkscape:connector-curvature="0"
   style="fill:#026937" />
			<path
   class="st0"
   d="m 554.3,324.6 c 0,-2.4 1.2,-4.1 3.6,-4.1 2.4,0 3.6,1.7 3.6,4.1 v 20 c 0,2.4 -1.2,4.1 -3.6,4.1 -2.4,0 -3.6,-1.7 -3.6,-4.1 m 7.8,-31.2 c 0,2.3 -1.8,4.3 -4.2,4.3 -2.4,0 -4.2,-2 -4.2,-4.3 0,-2.1 1.8,-4.1 4.2,-4.1 2.4,0 4.2,1.9 4.2,4.1 z"
   id="path3943"
   inkscape:connector-curvature="0"
   style="fill:#026937" />
			<path
   class="st0"
   d="m 572.8,334.6 c 0,3.6 1.8,7.5 6,7.5 4.2,0 6,-4 6,-7.5 0,-3.6 -1.8,-7.7 -6,-7.7 -4.2,0.1 -6,4.2 -6,7.7 m 19.2,0 c 0,7.8 -5.4,14.3 -13.2,14.3 -8.4,0 -13.8,-6.5 -13.8,-14.3 0,-7.5 6,-14.4 13.8,-14.4 7.8,0 13.2,6.9 13.2,14.4 z"
   id="path3945"
   inkscape:connector-curvature="0"
   style="fill:#026937" />
			<path
   class="st0"
   d="m 595.7,324.7 c 0,-2.6 1.2,-4.1 3.6,-4.1 1.8,0 3,1 3.6,2.7 1.2,-2 3.6,-3 7.2,-3 6,0 10.2,3.7 10.2,10 v 14.3 c 0,2.6 -1.8,4.2 -3.6,4.2 -2.4,0 -3.6,-1.7 -3.6,-4.2 v -13 c 0,-3.4 -2.4,-5.1 -5.4,-5.1 -3,0 -4.8,2.2 -4.8,5.1 v 13 c 0,2.6 -1.2,4.2 -3.6,4.2 -2.4,0 -3.6,-1.7 -3.6,-4.2"
   id="path3947"
   inkscape:connector-curvature="0"
   style="fill:#026937" />
			<polyline
   class="st0"
   points="77.9,353.8 80.3,348.6 92.3,339.1 90.5,329.6 87.5,319.9 97.1,301.1 93.5,301.1 109.1,266.1      124.7,301.1 121.1,301.1 134.3,330.1 129.5,330.1 139.1,353.8 114.5,353.8 114.5,377 102.5,377 102.5,353.8    "
   id="polyline3949"
   style="fill:#026937" />
			<path
   class="st0"
   d="m 82.6,313.3 c 1.8,-9.4 -1.8,-18.4 -9.6,-23.5 -6,-3.3 -14.4,-3.8 -20.4,-1.2 -6.6,2.9 -12,9.3 -13.2,16 -1.8,0.6 -4.2,1.7 -6,3.3 -3,3.2 -4.2,8 -3,12.4 -6.6,4.4 -10.2,11.7 -10.2,19 0.6,9 6.6,16.5 14.4,19.8 6,2.4 14.4,1.3 19.8,-1.7 -0.6,6.1 -1.8,11.8 -6,16.3 h 25.8 c -4.2,-5.1 -7.8,-11 -6,-17.9 1.2,0.8 4.2,1.1 6,1.1 12.6,0 22.2,-9.9 22.2,-22.1 0,-9.3 -6,-17.2 -14.4,-20.4 m -9.6,6.6 c 0.6,0 0.6,0 1.2,0 7.2,0 13.2,5.9 13.2,13.1 0,7.3 -6,13.2 -13.2,13.2 -3.6,0 -6.6,-1.6 -9,-3.9 H 54.4 c -1.2,3.1 -4.2,6.2 -7.2,7.4 -4.8,2 -10.8,0.3 -14.4,-3.6 -3.6,-3.7 -4.2,-9.3 -2.4,-13.8 1.2,-3.6 4.8,-6.4 8.4,-7.5 l 4.2,-0.3 0.6,-4.4 c -1.8,0.1 -4.2,-0.9 -4.8,-2.7 -1.2,-1.2 0,-2.9 0,-4.1 1.2,-1.8 3.6,-2.2 5.4,-1.8 0,0.3 0.6,0.8 0.6,0.8 l 3.6,-2.8 c -0.6,-5.7 1.2,-10.4 6,-13.3 3.6,-1.7 7.8,-2.4 10.8,-1.1 3.6,1 6,3.7 7.8,6.8 1.8,4.4 1.8,10.1 -1.2,13.9 l -1.2,1.2 z"
   id="path3951"
   inkscape:connector-curvature="0"
   style="fill:#026937" />
			<polyline
   class="st0"
   points="77.9,353.8 80.3,348.6 92.3,339.1 90.5,329.6 87.5,319.9 97.1,301.1 93.5,301.1 109.1,266.1      124.7,301.1 121.1,301.1 134.3,330.1 129.5,330.1 139.1,353.8 114.5,353.8 114.5,377 102.5,377 102.5,353.8    "
   id="polyline3953"
   style="fill:#026937" />
			<path
   class="st1"
   d="m 82.6,313.3 c 1.8,-9.4 -1.8,-18.4 -9.6,-23.5 -6,-3.3 -14.4,-3.8 -20.4,-1.2 -6.6,2.9 -12,9.3 -13.2,16 -1.8,0.6 -4.2,1.7 -6,3.3 -3,3.2 -4.2,8 -3,12.4 -6.6,4.4 -10.2,11.7 -10.2,19 0.6,9 6.6,16.5 14.4,19.8 6,2.4 14.4,1.3 19.8,-1.7 -0.6,6.1 -1.8,11.8 -6,16.3 h 25.8 c -4.2,-5.1 -7.8,-11 -6,-17.9 1.2,0.8 4.2,1.1 6,1.1 12.6,0 22.2,-9.9 22.2,-22.1 0,-9.3 -6,-17.2 -14.4,-20.4 m -9.6,6.6 c 0.6,0 0.6,0 1.2,0 7.2,0 13.2,5.9 13.2,13.1 0,7.3 -6,13.2 -13.2,13.2 -3.6,0 -6.6,-1.6 -9,-3.9 H 54.4 c -1.2,3.1 -4.2,6.2 -7.2,7.4 -4.8,2 -10.8,0.3 -14.4,-3.6 -3.6,-3.7 -4.2,-9.3 -2.4,-13.8 1.2,-3.6 4.8,-6.4 8.4,-7.5 l 4.2,-0.3 0.6,-4.4 c -1.8,0.1 -4.2,-0.9 -4.8,-2.7 -1.2,-1.2 0,-2.9 0,-4.1 1.2,-1.8 3.6,-2.2 5.4,-1.8 0,0.3 0.6,0.8 0.6,0.8 l 3.6,-2.8 c -0.6,-5.7 1.2,-10.4 6,-13.3 3.6,-1.7 7.8,-2.4 10.8,-1.1 3.6,1 6,3.7 7.8,6.8 1.8,4.4 1.8,10.1 -1.2,13.9 l -1.2,1.2 z"
   id="path3955"
   inkscape:connector-curvature="0"
   style="fill:#63a70a" />
		</g>
	</g>
</g>
</svg>